<svg width="85" height="110" viewBox="0 0 85 110" fill="none" xmlns="http://www.w3.org/2000/svg">
    <path d="M85 19.3721C85 8.69026 76.1376 0 65.2441 0C56.6176 0 49.2658 5.45023 46.5792 13.0233H7.4707C3.35136 13.0233 0 16.3095 0 20.3488V102.674C0 106.714 3.35136 110 7.4707 110H69.3945C73.5139 110 76.8652 106.714 76.8652 102.674V35.0278C81.7921 31.5016 85 25.7978 85 19.3721ZM65.2441 4.88372C73.3914 4.88372 80.0195 11.3831 80.0195 19.3721C80.0195 27.361 73.3914 33.8605 65.2441 33.8605C57.0969 33.8605 50.4688 27.361 50.4688 19.3721C50.4688 11.3831 57.0969 4.88372 65.2441 4.88372ZM71.8848 102.674C71.8848 104.021 70.7676 105.116 69.3945 105.116H7.4707C6.09759 105.116 4.98047 104.021 4.98047 102.674V20.3488C4.98047 19.0024 6.09759 17.907 7.4707 17.907H45.5446C45.5075 18.3908 45.4883 18.8793 45.4883 19.3721C45.4883 30.0539 54.3507 38.7442 65.2441 38.7442C67.573 38.7442 69.8084 38.3458 71.8848 37.617V102.674Z" fill="#C4C4C4"/>
    <path d="M60.3605 24.3711C60.7363 25.1082 61.466 25.6096 62.3007 25.7047C62.3968 25.7154 62.4926 25.7209 62.5881 25.7209C63.322 25.7209 64.0248 25.4025 64.5009 24.8424L71.1415 17.0284C72.0219 15.9924 71.8791 14.4527 70.8226 13.5893C69.7663 12.726 68.1959 12.866 67.3154 13.902L63.1123 18.8477L62.1589 16.9779C61.5438 15.7717 60.0479 15.2825 58.8178 15.8859C57.5877 16.4889 57.0891 17.9558 57.7042 19.1619L60.3605 24.3711Z" fill="#C4C4C4"/>
    <circle cx="65" cy="19" r="17" fill="#ED1631"/>
    <path d="M60.4999 15.25H64.0356V8.57143C64.0356 7.704 64.7381 7 65.6071 7C66.4761 7 67.1785 7.704 67.1785 8.57143V15.25H70.7142C71.7655 15.25 72.2888 16.5229 71.5471 17.2614L66.4399 22.3686C66.2105 22.5996 65.9088 22.7143 65.6071 22.7143C65.3053 22.7143 65.0036 22.5996 64.7742 22.3686L59.6671 17.2614C58.9253 16.5229 59.4486 15.25 60.4999 15.25Z" fill="white"/>
    <path d="M73.4642 28.9999H57.7499C56.8809 28.9999 56.1785 28.2959 56.1785 27.4284C56.1785 26.561 56.8809 25.857 57.7499 25.857H73.4642C74.3332 25.857 75.0356 26.561 75.0356 27.4284C75.0356 28.2959 74.3332 28.9999 73.4642 28.9999Z" fill="white"/>
    <path d="M27.3182 22.5H21.6818C20.9036 22.5 20.2727 23.0713 20.2727 23.7761V33.9849C20.2727 34.6897 20.9036 35.261 21.6818 35.261H27.3182C28.8746 35.261 30.1364 34.1183 30.1364 32.7088V25.0522C30.1364 23.6427 28.8746 22.5 27.3182 22.5ZM27.3182 32.7088H23.0909V25.0522H27.3182V32.7088Z" fill="#EC1630"/>
    <path d="M40 25.0522V22.5H32.9545C32.1763 22.5 31.5454 23.0713 31.5454 23.7761V35.261H34.3636V30.1566H40V27.6044H34.3636V25.0522H40Z" fill="#EC1630"/>
    <path d="M16.0455 22.5H10.4091C9.63083 22.5 9 23.0713 9 23.7761V35.261H11.8182V31.4327H16.0455C17.6019 31.4327 18.8636 30.29 18.8636 28.8805V25.0522C18.8636 23.6427 17.6019 22.5 16.0455 22.5ZM16.0455 28.8805H11.8182V25.0522H16.0455V28.8805Z" fill="#EC1630"/>
    <path d="M20 64.5H14.9858V46.1626L9 47.9239V44.0556L19.4621 40.5H20V64.5Z" fill="#EC1630"/>
    <path d="M24.1191 87.3398C24.0215 88.2383 23.6992 88.9258 23.1523 89.4023C22.6094 89.8789 21.8848 90.1172 20.9785 90.1172C20.3457 90.1172 19.7852 89.959 19.2969 89.6426C18.8125 89.3262 18.4375 88.8789 18.1719 88.3008C17.9062 87.7188 17.7715 87.0547 17.7676 86.3086V85.2012C17.7676 84.4434 17.9004 83.7715 18.166 83.1855C18.4316 82.5996 18.8125 82.1484 19.3086 81.832C19.8086 81.5117 20.3828 81.3516 21.0312 81.3516C21.9453 81.3516 22.666 81.5996 23.1934 82.0957C23.7246 82.5879 24.0332 83.2695 24.1191 84.1406H23.3926C23.2129 82.6914 22.4258 81.9668 21.0312 81.9668C20.2578 81.9668 19.6406 82.2559 19.1797 82.834C18.7227 83.4121 18.4941 84.2109 18.4941 85.2305V86.2734C18.4941 87.2578 18.7168 88.043 19.1621 88.6289C19.6113 89.2148 20.2168 89.5078 20.9785 89.5078C21.7324 89.5078 22.3008 89.3281 22.6836 88.9688C23.0664 88.6055 23.3027 88.0625 23.3926 87.3398H24.1191ZM27.4297 87.0938H26.457V90H25.748V83.6602H26.457V86.4727H27.418L29.7441 83.6602H30.6289L28.0273 86.7363L30.916 90H29.9902L27.4297 87.0938ZM35.9316 90C35.8613 89.8008 35.8164 89.5059 35.7969 89.1152C35.5508 89.4355 35.2363 89.6836 34.8535 89.8594C34.4746 90.0312 34.0723 90.1172 33.6465 90.1172C33.0371 90.1172 32.543 89.9473 32.1641 89.6074C31.7891 89.2676 31.6016 88.8379 31.6016 88.3184C31.6016 87.7012 31.8574 87.2129 32.3691 86.8535C32.8848 86.4941 33.6016 86.3145 34.5195 86.3145H35.791V85.5938C35.791 85.1406 35.6504 84.7852 35.3691 84.5273C35.0918 84.2656 34.6855 84.1348 34.1504 84.1348C33.6621 84.1348 33.2578 84.2598 32.9375 84.5098C32.6172 84.7598 32.457 85.0605 32.457 85.4121L31.7539 85.4062C31.7539 84.9023 31.9883 84.4668 32.457 84.0996C32.9258 83.7285 33.502 83.543 34.1855 83.543C34.8926 83.543 35.4492 83.7207 35.8555 84.0762C36.2656 84.4277 36.4766 84.9199 36.4883 85.5527V88.5527C36.4883 89.166 36.5527 89.625 36.6816 89.9297V90H35.9316ZM33.7285 89.4961C34.1973 89.4961 34.6152 89.3828 34.9824 89.1562C35.3535 88.9297 35.623 88.627 35.791 88.248V86.8535H34.5371C33.8379 86.8613 33.291 86.9902 32.8965 87.2402C32.502 87.4863 32.3047 87.8262 32.3047 88.2598C32.3047 88.6152 32.4355 88.9102 32.6973 89.1445C32.9629 89.3789 33.3066 89.4961 33.7285 89.4961ZM42.875 90H42.1719V87.334C41.5938 87.5449 41.041 87.6504 40.5137 87.6504C39.6738 87.6504 39.0645 87.4668 38.6855 87.0996C38.3066 86.7285 38.1094 86.1523 38.0938 85.3711V83.6602H38.791V85.3359C38.7988 85.9414 38.9316 86.3789 39.1895 86.6484C39.4512 86.9141 39.8926 87.0469 40.5137 87.0469C41.0801 87.0312 41.6328 86.9297 42.1719 86.7422V83.6602H42.875V90ZM48.752 90C48.6816 89.8008 48.6367 89.5059 48.6172 89.1152C48.3711 89.4355 48.0566 89.6836 47.6738 89.8594C47.2949 90.0312 46.8926 90.1172 46.4668 90.1172C45.8574 90.1172 45.3633 89.9473 44.9844 89.6074C44.6094 89.2676 44.4219 88.8379 44.4219 88.3184C44.4219 87.7012 44.6777 87.2129 45.1895 86.8535C45.7051 86.4941 46.4219 86.3145 47.3398 86.3145H48.6113V85.5938C48.6113 85.1406 48.4707 84.7852 48.1895 84.5273C47.9121 84.2656 47.5059 84.1348 46.9707 84.1348C46.4824 84.1348 46.0781 84.2598 45.7578 84.5098C45.4375 84.7598 45.2773 85.0605 45.2773 85.4121L44.5742 85.4062C44.5742 84.9023 44.8086 84.4668 45.2773 84.0996C45.7461 83.7285 46.3223 83.543 47.0059 83.543C47.7129 83.543 48.2695 83.7207 48.6758 84.0762C49.0859 84.4277 49.2969 84.9199 49.3086 85.5527V88.5527C49.3086 89.166 49.373 89.625 49.502 89.9297V90H48.752ZM46.5488 89.4961C47.0176 89.4961 47.4355 89.3828 47.8027 89.1562C48.1738 88.9297 48.4434 88.627 48.6113 88.248V86.8535H47.3574C46.6582 86.8613 46.1113 86.9902 45.7168 87.2402C45.3223 87.4863 45.125 87.8262 45.125 88.2598C45.125 88.6152 45.2559 88.9102 45.5176 89.1445C45.7832 89.3789 46.127 89.4961 46.5488 89.4961ZM55.6426 84.2578H53.334V90H52.6309V84.2578H50.4102V83.6602H55.6426V84.2578ZM57.5703 85.9629H59.3984C59.8672 85.9629 60.2773 86.0488 60.6289 86.2207C60.9844 86.3887 61.252 86.623 61.4316 86.9238C61.6152 87.2246 61.707 87.5742 61.707 87.9727C61.707 88.5859 61.4961 89.0781 61.0742 89.4492C60.6562 89.8164 60.0898 90 59.375 90H56.873V83.6602H57.5703V85.9629ZM57.5703 86.5605V89.4082H59.3867C59.8906 89.4082 60.2852 89.2812 60.5703 89.0273C60.8594 88.7734 61.0039 88.4258 61.0039 87.9844C61.0039 87.5625 60.8633 87.2227 60.582 86.9648C60.3047 86.7031 59.9238 86.5684 59.4395 86.5605H57.5703Z" fill="#EC1630"/>
    <path d="M17 91.1719H62.3047V91.7578H17V91.1719Z" fill="#EC1630"/>
</svg>
