<svg width="85" height="110" viewBox="0 0 85 110" fill="none" xmlns="http://www.w3.org/2000/svg">
    <path d="M85 19.3721C85 8.69026 76.1376 0 65.2441 0C56.6176 0 49.2658 5.45023 46.5792 13.0233H7.4707C3.35136 13.0233 0 16.3095 0 20.3488V102.674C0 106.714 3.35136 110 7.4707 110H69.3945C73.5139 110 76.8652 106.714 76.8652 102.674V35.0278C81.7921 31.5016 85 25.7978 85 19.3721ZM65.2441 4.88372C73.3914 4.88372 80.0195 11.3831 80.0195 19.3721C80.0195 27.361 73.3914 33.8605 65.2441 33.8605C57.0969 33.8605 50.4688 27.361 50.4688 19.3721C50.4688 11.3831 57.0969 4.88372 65.2441 4.88372ZM71.8848 102.674C71.8848 104.021 70.7676 105.116 69.3945 105.116H7.4707C6.09759 105.116 4.98047 104.021 4.98047 102.674V20.3488C4.98047 19.0024 6.09759 17.907 7.4707 17.907H45.5446C45.5075 18.3908 45.4883 18.8793 45.4883 19.3721C45.4883 30.0539 54.3507 38.7442 65.2441 38.7442C67.573 38.7442 69.8084 38.3458 71.8848 37.617V102.674Z" fill="#C4C4C4"/>
    <path d="M60.3604 24.3711C60.7363 25.1082 61.4659 25.6096 62.3007 25.7047C62.3968 25.7154 62.4926 25.7209 62.588 25.7209C63.322 25.7209 64.0247 25.4025 64.5009 24.8424L71.1415 17.0284C72.0219 15.9924 71.8791 14.4527 70.8226 13.5893C69.7662 12.726 68.1959 12.866 67.3153 13.902L63.1123 18.8477L62.1589 16.9779C61.5438 15.7717 60.0478 15.2825 58.8178 15.8859C57.5876 16.4889 57.0891 17.9558 57.7042 19.1619L60.3604 24.3711Z" fill="#C4C4C4"/>
    <circle cx="65" cy="19" r="17" fill="#ED1631"/>
    <path d="M67.2832 11.25V16.9863H72.75V20.8477H67.2832V26.75H62.7334V20.8477H57.25V16.9863H62.7334V11.25H67.2832Z" fill="white" stroke="#ED1631" stroke-width="0.5"/>
    <ellipse cx="65.3687" cy="19.6296" rx="16.6187" ry="16.21" fill="#ED1631"/>
    <path d="M74.634 10.1914C73.7523 9.30977 72.601 8.86525 71.4412 8.84098C70.2207 8.81427 68.9929 9.2563 68.0699 10.1805L59.848 18.4024C58.6481 19.6071 57.9874 21.2054 57.9874 22.9031L57.9874 25.6235C57.9874 26.2951 58.5303 26.8379 59.2019 26.8379L61.9222 26.8379C63.62 26.8379 65.2183 26.1772 66.4242 24.9761L74.6351 16.7652C76.4447 14.9545 76.4447 12.0034 74.634 10.1914ZM64.7083 23.2578C63.9638 23.9998 62.9728 24.4091 61.9223 24.4091L60.4163 24.4091L60.4163 22.9032C60.4163 21.8527 60.8256 20.8617 61.5664 20.1184L66.9865 14.6983L70.1271 17.8389L64.7083 23.2578ZM72.9168 15.0493L71.8444 16.1217L68.7038 12.9811L69.7761 11.9087C70.6433 11.0416 72.052 11.0441 72.9167 11.9087C73.7814 12.7746 73.7814 14.1834 72.9168 15.0493Z" fill="white" stroke="#EC1630" stroke-width="0.5"/>
</svg>
